<?xml version="1.0" standalone="no"?>
<!DOCTYPE svg PUBLIC "-//W3C//DTD SVG 20010904//EN"
 "http://www.w3.org/TR/2001/REC-SVG-20010904/DTD/svg10.dtd">
<svg version="1.0" xmlns="http://www.w3.org/2000/svg"
 width="617.000000pt" height="400.000000pt" viewBox="0 0 617.000000 400.000000"
 preserveAspectRatio="xMidYMid meet">

<g transform="translate(0.000000,400.000000) scale(0.100000,-0.100000)"
fill="#00FFFF" stroke="none">
<path d="M2170 3415 l0 -145 -830 0 c-456 0 -830 -4 -830 -8 0 -9 -3 -10 -57
-13 -18 -1 -33 -6 -33 -11 0 -5 -5 -6 -10 -3 -6 3 -10 2 -10 -3 0 -6 -10 -8
-22 -4 -15 4 -19 2 -14 -7 5 -8 3 -11 -5 -10 -21 4 -82 -12 -99 -25 -13 -11
-34 -15 -87 -19 -7 0 -13 -4 -13 -8 0 -5 -7 -5 -17 -2 -12 5 -14 3 -8 -7 6
-10 4 -12 -9 -7 -23 9 -91 -28 -112 -61 -11 -17 -12 -22 -3 -16 12 6 12 5 1
-9 -22 -27 -2 -141 25 -142 5 -1 28 -11 51 -24 24 -12 50 -20 57 -17 8 3 15 1
17 -4 2 -5 14 -11 28 -14 14 -2 25 -5 25 -6 0 -1 9 -3 20 -5 36 -6 50 -10 62
-18 6 -4 23 -8 37 -9 14 -1 26 -5 26 -9 0 -8 72 -29 82 -23 4 3 8 0 8 -6 0 -7
7 -10 15 -6 8 3 15 1 15 -5 0 -5 6 -9 13 -8 6 1 387 1 845 0 l832 -1 0 -785 0
-785 -832 -1 c-458 -1 -836 -1 -840 0 -5 0 -8 -3 -8 -8 0 -5 -10 -7 -22 -3
-16 4 -19 2 -13 -8 6 -10 4 -12 -8 -7 -8 3 -46 -6 -84 -19 -80 -30 -102 -36
-125 -36 -10 1 -18 -3 -18 -8 0 -4 -8 -6 -19 -3 -10 2 -25 -2 -33 -11 -9 -8
-18 -13 -21 -10 -3 3 -26 -3 -51 -15 -26 -11 -49 -20 -52 -20 -4 0 -14 -11
-24 -26 -23 -35 -24 -124 -1 -152 24 -30 79 -65 91 -58 5 3 10 1 10 -6 0 -6 8
-9 20 -6 11 3 20 1 20 -4 0 -5 9 -9 20 -9 10 0 58 -13 106 -29 49 -17 91 -28
95 -25 4 2 9 0 11 -5 1 -5 19 -12 38 -15 19 -3 51 -10 70 -16 23 -6 324 -10
852 -10 l818 0 0 -190 0 -190 185 0 185 0 0 190 0 190 1215 -2 c1205 -3 1214
-3 1225 17 7 14 9 15 6 3 -4 -14 1 -18 24 -18 17 0 30 4 30 8 0 9 4 10 68 13
23 1 42 5 42 10 0 5 7 6 15 3 8 -4 15 -1 15 6 0 6 4 9 9 5 8 -5 69 15 151 48
14 6 28 10 33 9 4 -1 7 3 7 9 0 5 5 7 10 4 6 -3 10 -2 10 3 0 5 6 9 13 9 6 0
36 14 65 31 28 17 52 29 52 26 0 -4 9 4 20 17 10 13 19 21 20 17 0 -4 14 6 32
22 17 16 35 27 39 24 4 -2 9 0 11 4 1 5 48 49 103 98 55 49 102 94 104 99 7
21 65 95 73 95 5 0 7 4 4 8 -3 5 5 19 17 33 33 35 68 95 60 102 -3 4 0 7 7 7
7 0 11 3 7 6 -5 5 17 56 54 127 5 10 7 22 4 27 -4 6 -1 10 5 10 7 0 10 7 6 15
-3 8 -1 15 5 15 6 0 7 5 4 10 -3 5 -1 10 6 10 7 0 10 3 6 6 -3 3 -1 18 4 32
18 46 39 224 39 327 0 103 -21 281 -39 327 -5 14 -7 29 -4 32 4 3 1 6 -6 6 -7
0 -9 5 -6 10 3 6 2 10 -4 10 -6 0 -8 7 -5 15 4 8 1 15 -6 15 -6 0 -9 4 -5 10
3 5 1 17 -4 27 -37 71 -59 122 -54 127 4 3 1 6 -5 6 -7 0 -11 3 -10 8 3 11
-31 73 -64 115 -16 20 -28 37 -25 37 3 0 -10 17 -29 37 -19 20 -32 38 -31 40
5 4 -186 193 -195 193 -4 0 -8 5 -8 11 0 5 -4 8 -9 5 -5 -3 -21 6 -35 19 -15
14 -31 25 -37 25 -5 0 -9 4 -9 10 0 5 -3 9 -7 8 -5 -1 -37 15 -73 36 -36 21
-71 39 -77 39 -7 0 -13 5 -13 10 0 6 -3 7 -6 4 -4 -4 -19 0 -33 8 -40 23 -163
65 -173 59 -4 -3 -8 0 -8 6 0 7 -7 10 -15 6 -8 -3 -15 0 -15 5 0 6 -9 9 -20 6
-11 -3 -20 -1 -20 5 0 6 -15 8 -35 6 -19 -2 -35 0 -35 5 0 5 -16 7 -35 5 -19
-2 -35 0 -35 5 0 5 -11 2 -24 -7 -15 -10 -27 -12 -31 -6 -4 7 -421 10 -1191
10 l-1184 0 0 145 0 145 -185 0 -185 0 0 -145z m1268 -262 c-53 -2 -143 -2
-200 0 -57 1 -13 3 97 3 110 0 156 -2 103 -3z m1259 -340 c-1 -54 -3 -10 -3
97 0 107 2 151 3 98 2 -54 2 -142 0 -195z m-1777 207 c0 -47 -3 -60 -15 -60
-11 0 -15 12 -15 50 l0 50 -95 0 -95 0 0 -125 0 -126 93 3 92 3 3 53 c2 37 7
52 18 52 11 0 14 -14 14 -60 l0 -60 -130 0 -130 0 0 133 c0 74 3 137 7 140 3
4 62 7 130 7 l123 0 0 -60z m-42 -7 l-3 -38 -82 -3 -83 -3 0 41 0 40 86 0 85
0 -3 -37z m236 -39 c32 -32 9 -88 -34 -82 -38 5 -50 17 -50 48 0 45 52 66 84
34z m-306 -57 l77 -3 -82 -2 -83 -2 1 28 c1 22 2 23 6 5 4 -20 11 -22 81 -26z
m162 23 c0 -6 -45 -10 -115 -10 -70 0 -115 4 -115 10 0 6 45 10 115 10 70 0
115 -4 115 -10z m50 0 c0 -5 -9 -10 -21 -10 -11 0 -17 5 -14 10 3 6 13 10 21
10 8 0 14 -4 14 -10z m-142 -77 l-3 -38 -82 -3 -83 -3 0 41 0 40 86 0 85 0 -3
-37z m395 -504 c31 -34 70 -88 86 -120 16 -33 31 -54 34 -47 2 7 2 3 0 -9 -5
-33 7 -74 20 -66 6 3 7 1 3 -6 -4 -6 -3 -43 3 -81 12 -77 -1 -170 -40 -281
-22 -63 -23 -73 -9 -64 6 3 10 1 10 -5 0 -7 -6 -10 -14 -7 -9 4 -22 -5 -32
-21 -10 -15 -40 -51 -67 -79 -38 -40 -57 -53 -81 -54 l-31 -2 35 -6 c22 -5 1
-7 -57 -7 -51 1 -84 4 -75 7 12 5 6 10 -23 18 -22 6 -45 11 -51 11 -23 0 -111
56 -157 100 -83 79 -147 221 -147 327 0 95 60 246 120 303 113 107 204 146
346 149 l70 1 57 -61z m122 -73 c0 -13 -3 -22 -7 -19 -5 2 -8 -1 -8 -6 0 -20
-16 -11 -33 19 l-18 30 33 0 c28 0 33 -3 33 -24z m2 -548 c-3 -8 -6 -5 -6 6
-1 11 2 17 5 13 3 -3 4 -12 1 -19z m926 -955 c-244 -2 -642 -2 -885 0 -244 1
-45 2 442 2 487 0 686 -1 443 -2z"/>
<path d="M3038 2340 c-54 -9 -139 -62 -189 -118 -97 -110 -123 -288 -58 -414
10 -20 19 -42 19 -47 0 -14 75 -84 136 -127 36 -25 64 -36 92 -37 22 -1 38 -6
35 -10 -3 -5 27 -7 67 -4 70 4 74 6 109 44 45 49 91 115 91 131 0 7 4 12 9 12
17 0 34 143 28 245 -6 121 -24 169 -104 268 l-54 67 -67 -1 c-37 -1 -88 -5
-114 -9z m182 -10 c13 -8 12 -10 -2 -10 -10 0 -18 -6 -18 -12 0 -21 -82 -268
-89 -268 -3 0 -6 14 -7 31 -1 17 2 26 5 20 4 -6 22 40 40 102 19 61 35 117 38
122 2 6 -22 9 -64 7 -49 -2 -64 0 -53 7 19 13 130 14 150 1z m-117 -197 c-7
-2 -21 -2 -30 0 -10 3 -4 5 12 5 17 0 24 -2 18 -5z m190 0 c-23 -2 -64 -2 -90
0 -26 2 -7 3 42 3 50 0 71 -1 48 -3z m-206 -89 c-3 -3 -12 -4 -19 -1 -8 3 -5
6 6 6 11 1 17 -2 13 -5z m28 -24 c9 -15 27 -12 19 3 -4 6 -3 9 1 4 5 -4 10
-24 12 -45 7 -74 -64 -109 -112 -54 -30 33 -29 30 -5 70 15 24 27 32 49 32 17
0 33 -4 36 -10z m-116 -56 c14 -13 -21 -15 -123 -9 -64 4 -116 12 -116 17 0 9
229 1 239 -8z m163 -239 c-4 -5 -10 6 -15 25 -5 19 -18 57 -28 83 -11 26 -17
52 -13 58 3 6 19 -27 34 -72 15 -46 25 -88 22 -94z m-43 83 c24 -66 39 -123
35 -130 -3 -4 -25 -8 -50 -8 l-44 0 0 80 c0 79 0 80 25 80 17 0 28 -7 34 -22z
m95 -188 c2 0 2 9 -1 20 -4 16 0 20 21 20 24 0 25 -2 16 -20 -14 -26 -50 -46
-50 -28 0 9 -3 9 -11 -2 -9 -12 -10 -12 -5 3 3 10 6 26 7 35 0 12 3 10 9 -5 5
-13 11 -23 14 -23z"/>
</g>
</svg>
